<svg width="120" height="42" viewBox="0 0 120 42" fill="none" xmlns="http://www.w3.org/2000/svg">
<mask id="mask0_152_38" style="mask-type:luminance" maskUnits="userSpaceOnUse" x="0" y="35" width="56" height="7">
<path d="M0 35.2579H55.018V41.3774H0V35.2579Z" fill="white"/>
</mask>
<g mask="url(#mask0_152_38)">
<path d="M0 35.2579H55.0157V41.3774H0V35.2579Z" fill="#B8FF2E"/>
</g>
<mask id="mask1_152_38" style="mask-type:luminance" maskUnits="userSpaceOnUse" x="62" y="0" width="56" height="7">
<path d="M62.1777 0.486389H117.198V6.60361H62.1777V0.486389Z" fill="white"/>
</mask>
<g mask="url(#mask1_152_38)">
<path d="M62.1777 0.486389H117.196V6.60361H62.1777V0.486389Z" fill="#B8FF2E"/>
</g>
<path d="M23.4787 11.3368C24.8298 11.7694 25.8871 12.4843 26.653 13.4838C27.4165 14.4833 27.8005 15.7141 27.8005 17.1763C27.8005 19.2493 26.9954 20.8457 25.3851 21.9609C23.7794 23.0715 21.4357 23.6267 18.3517 23.6267H6.13574V0H17.6761C20.5566 0 22.7661 0.552956 24.3023 1.65655C25.8432 2.76247 26.6159 4.25707 26.6159 6.14498C26.6159 7.29254 26.3406 8.31748 25.7923 9.21748C25.2416 10.1198 24.4712 10.8254 23.4787 11.3368ZM11.5681 4.11825V9.68946H17.0005C18.3517 9.68946 19.3743 9.45578 20.073 8.98611C20.7694 8.51182 21.1188 7.81079 21.1188 6.88534C21.1188 5.96684 20.7694 5.27506 20.073 4.81234C19.3743 4.34961 18.3517 4.11825 17.0005 4.11825H11.5681ZM17.9445 19.5085C19.3882 19.5085 20.4733 19.2748 21.2021 18.8051C21.9355 18.3308 22.3033 17.5974 22.3033 16.6026C22.3033 14.6476 20.8504 13.6689 17.9445 13.6689H11.5681V19.5085H17.9445Z" fill="white"/>
<path d="M38.9395 0H44.4089V19.1753H56.2546V23.6267H38.9395V0Z" fill="white"/>
<path d="M75.9892 40.9169C72.6136 40.9169 69.9854 39.9822 68.1044 38.1127C66.228 36.2433 65.291 33.578 65.291 30.1169V16.8829H70.7604V29.9133C70.7604 34.1403 72.5141 36.2526 76.0262 36.2526C77.7337 36.2526 79.0363 35.7436 79.9316 34.7256C80.8316 33.703 81.2828 32.0973 81.2828 29.9133V16.8829H86.6874V30.1169C86.6874 33.578 85.7458 36.2433 83.8648 38.1127C81.9884 39.9822 79.3625 40.9169 75.9892 40.9169Z" fill="white"/>
<path d="M114.124 40.5092L109.571 33.9293H104.546V40.5092H99.0762V16.8825H109.302C111.394 16.8825 113.21 17.2319 114.753 17.9283C116.294 18.627 117.479 19.6172 118.307 20.899C119.14 22.183 119.556 23.7008 119.556 25.4522C119.556 27.2105 119.133 28.7259 118.289 29.9961C117.449 31.2686 116.253 32.2403 114.698 32.9113L120.001 40.5092H114.124ZM114.022 25.4522C114.022 24.1265 113.592 23.1108 112.736 22.4074C111.884 21.6995 110.637 21.3432 108.997 21.3432H104.546V29.5704H108.997C110.637 29.5704 111.884 29.2141 112.736 28.4969C113.592 27.775 114.022 26.7617 114.022 25.4522Z" fill="white"/>
</svg>
